<svg id="Capa_1" enable-background="new 0 0 512 512" height="512" viewBox="0 0 512 512" width="512" xmlns="http://www.w3.org/2000/svg"><g><path d="m495.5 276.082h-42.898v-13.429h17.322c8.547 0 15.5-6.953 15.5-15.5v-64c0-8.547-6.953-15.5-15.5-15.5h-17.322v-11.039h17.322c8.547 0 15.5-6.953 15.5-15.5v-64c0-8.547-6.953-15.5-15.5-15.5h-62.009c-4.143 0-7.5 3.358-7.5 7.5s3.357 7.5 7.5 7.5h62.009c.275 0 .5.224.5.5v64c0 .276-.225.5-.5.5-3.308 0-423.976 0-427.848 0-.275 0-.5-.224-.5-.5v-64c0-.276.225-.5.5-.5h330.839c4.143 0 7.5-3.358 7.5-7.5s-3.357-7.5-7.5-7.5h-330.839c-8.547 0-15.5 6.953-15.5 15.5v64c0 8.547 6.953 15.5 15.5 15.5h17.557v11.039h-17.557c-8.547 0-15.5 6.953-15.5 15.5v64c0 8.547 6.953 15.5 15.5 15.5h17.557v13.429h-43.133c-9.099 0-16.5 7.402-16.5 16.5v31.859c0 9.098 7.401 16.5 16.5 16.5h8.906v95.946c0 7.444 6.056 13.5 13.5 13.5h25.62c7.444 0 13.5-6.056 13.5-13.5v-95.947h62.474c4.143 0 7.5-3.358 7.5-7.5s-3.357-7.5-7.5-7.5c-105.305 0-90.272 0-124 0-.827 0-1.5-.673-1.5-1.5v-31.859c0-.827.673-1.5 1.5-1.5h479c.827 0 1.5.673 1.5 1.5v31.859c0 .715-.484 1.22-.964 1.404-.004.001-.007.002-.011.004-.164.061-.341.092-.525.092-9.219 0-309.426 0-320 0-4.143 0-7.5 3.358-7.5 7.5s3.357 7.5 7.5 7.5h258.474v95.946c0 7.444 6.056 13.5 13.5 13.5h25.62c7.444 0 13.5-6.056 13.5-13.5v-95.946h8.906c9.238 0 16.5-7.569 16.5-16.5v-31.859c0-9.098-7.401-16.499-16.5-16.499zm-432.474 64.858v94.446h-22.62v-94.446zm374.576-184.326v11.039h-20.234v-11.039zm-342.969 0v11.039h-20v-11.039zm15 0h292.734v11.039h-292.734zm-68.057 90.539v-64c0-.276.225-.5.5-.5h427.848c.275 0 .5.224.5.5v64c0 .276-.225.5-.5.5-17.675 0-410.046 0-427.848 0-.275 0-.5-.224-.5-.5zm360.791 15.5v13.429h-292.734v-13.429zm-327.734 13.429v-13.429h20v13.429zm342.734 0v-13.429h20.234v13.429zm54.227 159.304h-22.62v-94.446h22.62z"/></g></svg>