<svg id="Capa_1" enable-background="new 0 0 512.167 512.167" style="fill:#293F2C;" height="512" viewBox="0 0 512.167 512.167" width="512" xmlns="http://www.w3.org/2000/svg"><path d="m512.164 281.277c0-4.143-3.357-7.5-7.5-7.5s-7.5 3.357-7.5 7.5v22.436c-35.406 2.353-44.184 23.013-75.361 22.665-30.383-.34-41.719-22.431-82.864-22.88-11.47-.125-20.182 1.688-27.354 4.105v-108.267h185.58v49.261c0 4.143 3.357 7.5 7.5 7.5s7.5-3.357 7.5-7.5v-56.761c0-4.143-3.357-7.5-7.5-7.5h-193.08v-35.899c0-10.962 8.914-19.88 19.87-19.88 10.962 0 19.88 8.918 19.88 19.88 0 12.958 10.542 23.5 23.5 23.5s23.5-10.542 23.5-23.5c0-36.878-30.002-66.88-66.88-66.88-16.54 0-31.685 6.05-43.372 16.037-12.049-10.259-27.481-16.037-43.378-16.037-36.872 0-66.87 30.002-66.87 66.88v35.899h-83.87c-4.142 0-7.5 3.357-7.5 7.5s3.358 7.5 7.5 7.5h83.87v104.259c-38.5-3.649-55.445 22.782-87.475 22.782-27.969 0-47.745-20.664-75.355-22.619v-104.422h46.27c4.142 0 7.5-3.357 7.5-7.5s-3.358-7.5-7.5-7.5h-53.772c-4.142 0-7.5 3.357-7.5 7.5l-.003 208.393c0 4.143 3.358 7.553 7.5 7.5 33.161-.422 43.333 22.881 82.859 22.881 41.225 0 52.494-23.796 82.859-22.881 32.115.968 39.615 22.881 82.858 22.881 44.507 0 52.482-22.881 82.861-22.881 30.385 0 39.146 22.881 82.864 22.881 41.531 0 52.484-22.881 82.864-22.881 4.143 0 7.5-3.357 7.5-7.5zm-232.581-132.84c0-28.606 23.269-51.88 51.87-51.88 28.606 0 51.88 23.273 51.88 51.88 0 4.687-3.813 8.5-8.5 8.5s-8.5-3.813-8.5-8.5c0-19.232-15.647-34.88-34.88-34.88-19.228 0-34.87 15.647-34.87 34.88v165.951c-.914.497-11.794 6.502-17 8.37zm-86.75 0c0-28.606 23.269-51.88 51.87-51.88 12.09 0 23.835 4.321 33.104 11.999-3.457 4.639-6.311 9.747-8.484 15.198-6.313-6.297-15.02-10.197-24.62-10.197-19.228 0-34.87 15.647-34.87 34.88v162.981c-4.825-2.334-10.281-4.485-17-5.955zm32 119.904v-27h39.75v27zm39.75 15v42.657c-15 2.199-29.263-.551-39.75-6.609v-36.048zm-39.75-57v-27h39.75v27zm0-42v-35.904c0-10.962 8.914-19.88 19.87-19.88 10.962 0 19.88 8.918 19.88 19.88v35.904zm272.334 164.035c-29.583 2.32-41.581 21.891-75.363 22.62-32.47.7-47.22-23.05-82.87-22.88-26.484.126-43.539 16.884-67.93 21.586-4.067.784-6.729 4.717-5.944 8.784s4.714 6.729 8.784 5.944c23.685-4.567 39.949-21.314 65.09-21.314 30.439 0 51.856 23.103 82.87 22.88 41.78-.3 43.28-21.05 75.363-22.588v29.577c-36.083 1.711-45.833 22.624-75.364 22.624-30.385 0-45.968-22.851-82.864-22.881-39.604-.032-46.854 22.881-82.861 22.881-30.269 0-40.493-22.663-82.858-22.881-37.638-.193-52.48 22.881-82.859 22.881-27.971 0-47.746-20.671-75.359-22.624v-29.578c27.447 2.23 46.582 22.588 75.363 22.588 30.833 0 52.475-22.88 82.85-22.88 24.977 0 41.623 16.8 65.114 21.315 4.07.781 8-1.881 8.781-5.949.782-4.067-1.882-7.999-5.949-8.781-24.983-4.802-40.84-21.585-67.946-21.585-30.832 0-52.474 22.88-82.85 22.88-27.971 0-47.75-20.667-75.363-22.62v-29.591c27.599 2.242 37.583 22.661 75.359 22.592 43.734-.08 52.481-22.88 82.859-22.88 29.916 0 38.112 22.806 82.858 22.88 41.757.069 52.59-22.88 82.861-22.88 34.027 0 40.146 22.809 82.864 22.88 42.031.069 48.165-20.383 75.364-22.592z"/></svg>