<svg id="Capa_1" enable-background="new 0 0 512 512" height="512" style="fill:#293F2C;" viewBox="0 0 512 512" width="512" xmlns="http://www.w3.org/2000/svg"><g><path d="m512 232.536c0-11.172-9.089-20.261-20.26-20.261h-6.429c-1.556-4.14-3.863-7.913-6.755-11.156.917-1.244 1.466-2.777 1.466-4.441v-22.024c0-25.111-9.215-49.236-25.946-67.933-2.763-3.088-7.504-3.348-10.59-.587-3.087 2.763-3.35 7.504-.587 10.591 14.267 15.941 22.124 36.514 22.124 57.929v14.524c-9.865 0-36.562 0-47.583 0-22.365 0-40.561-18.195-40.561-40.561 0-4.143-3.358-7.5-7.5-7.5s-7.5 3.358-7.5 7.5c-.001 22.365-18.197 40.561-40.562 40.561-24.413 0-38.029 0-47.583 0v-14.524c0-47.915 38.981-86.897 86.896-86.897.688 0 1.248.56 1.248 1.248 0 4.142 3.358 7.499 7.5 7.499s7.5-3.357 7.5-7.499c0-.688.56-1.248 1.248-1.248 13.872 0 27.125 3.169 39.393 9.42 3.688 1.878 8.207.413 10.087-3.277s.413-8.207-3.278-10.088c-14.396-7.335-29.94-11.055-46.202-11.055-3.218 0-6.221.94-8.748 2.562-2.527-1.621-5.53-2.562-8.748-2.562-56.186 0-101.896 45.711-101.896 101.897v22.024c0 1.665.549 3.197 1.466 4.441-1.66 1.861-3.123 3.899-4.367 6.079-1.243-2.18-2.707-4.218-4.366-6.079.917-1.244 1.466-2.777 1.466-4.441v-22.024c0-56.187-45.711-101.897-101.897-101.897-3.218 0-6.221.94-8.748 2.562-2.527-1.621-5.53-2.562-8.748-2.562-56.186 0-101.896 45.711-101.896 101.897v22.024c0 1.665.549 3.197 1.466 4.441-2.892 3.243-5.2 7.016-6.755 11.156h-6.093c-11.173 0-20.262 9.089-20.262 20.261 0 10.367 7.83 18.927 17.885 20.109-10.421 10.91-16.535 25.583-16.535 41.322v54.777c0 4.143 3.358 7.5 7.5 7.5h14.549c4.315 0 8.52-.469 12.579-1.34-1.091 3.959-1.687 8.122-1.687 12.423v64.417c0 4.143 3.358 7.5 7.5 7.5h13.5c4.142 0 7.5-3.357 7.5-7.5s-3.358-7.5-7.5-7.5h-6v-56.917c0-8.966 3.735-17.071 9.723-22.859 2.758-2.047 9.245-8.95 22.086-8.95h19.323c.184 22.996 19.002 41.4 41.737 41.4 22.69 0 41.552-18.334 41.737-41.4h19.062c17.54 0 31.809 14.27 31.809 31.809v56.917h-144.477c-4.142 0-7.5 3.357-7.5 7.5s3.358 7.5 7.5 7.5h151.978c4.142 0 7.5-3.357 7.5-7.5v-64.417c0-25.811-20.999-46.809-46.809-46.809h-19.061v-1.52c22.866-11.939 40-33.403 46.103-59.095 11.07-1.583 20.504-8.285 25.83-17.626 5.343 9.371 14.822 16.085 25.938 17.64 6.096 25.647 23.186 47.079 45.996 59.026v1.575h-19.06c-25.811 0-46.81 20.998-46.81 46.809v64.417c0 4.143 3.358 7.5 7.5 7.5h200.478c4.142 0 7.5-3.357 7.5-7.5v-64.417c0-4.301-.595-8.464-1.687-12.423 4.058.871 8.264 1.34 12.579 1.34h14.549c4.142 0 7.5-3.357 7.5-7.5v-54.777c0-15.717-6.098-30.371-16.493-41.277 10.197-1.046 18.178-9.685 18.178-20.154zm-52.603 11.357c.208-3.928.2-34.741-.005-38.326 7.909 3.043 13.181 10.693 13.181 19.171-.001 8.454-5.269 16.116-13.176 19.155zm-63.154 91.288c0 14.743-11.995 26.738-26.739 26.738s-26.738-11.995-26.738-26.738c0-5.669 0-4.267 0-10.031 17.186 5.354 36.062 5.386 53.477-.046zm15-16.317c6.508-3.424 12.547-7.621 17.996-12.468.844 4.977 2.303 9.745 4.297 14.226-2.206-.139-1.016-.104-22.294-.104v-1.654zm85.757-86.328c0 2.9-2.36 5.261-5.26 5.261h-6.665c1.278-3.22 2.096-6.669 2.377-10.268.007-.085.022-.169.028-.254h4.259c2.901 0 5.261 2.361 5.261 5.261zm-450.357-57.883c0-47.915 38.981-86.897 86.896-86.897.688 0 1.248.56 1.248 1.248 0 4.142 3.358 7.499 7.5 7.499s7.5-3.357 7.5-7.499c0-.688.56-1.248 1.248-1.248 47.915 0 86.897 38.982 86.897 86.897v14.524c-9.865 0-36.562 0-47.583 0-4.892 0-9.585-.871-13.932-2.465-15.523-5.695-26.629-20.622-26.629-38.095 0-4.143-3.358-7.5-7.5-7.5s-7.5 3.358-7.5 7.5c-.001 17.473-11.107 32.401-26.63 38.095-4.346 1.595-9.039 2.465-13.932 2.465-24.413 0-38.029 0-47.583 0zm-7.454 51.989c-.861-9.498 4.81-17.946 13.19-21.116-.224 4.039-.198 34.774-.004 38.408-7.239-2.731-12.458-9.417-13.186-17.292zm-24.189 5.894c0-2.9 2.36-5.261 5.261-5.261h3.923c.006.085.021.169.028.254.281 3.599 1.1 7.047 2.377 10.268h-6.329c-2.9 0-5.26-2.36-5.26-5.261zm1.35 108.708v-47.277c0-16.701 9.183-31.808 23.72-39.564 4.198 2.77 9.19 4.745 14.612 5.521 2.661 11.191 7.467 21.607 13.601 30.458 0 6.619 1.418 24.28-14.468 38.947-2.682 1.932-12.484 11.915-30.416 11.915zm61.778-20.621c2.005-4.506 3.47-9.3 4.312-14.306 5.444 4.855 11.478 9.06 17.982 12.492v1.709c-21.229.001-20.066-.036-22.294.105zm37.294 14.558c0-8.927 0-6.36 0-10.109.044.014.09.025.134.039 8.881 2.771 18.05 4.064 26.783 4.064 9.243 0 18.342-1.448 26.56-3.994v10c0 14.743-11.995 26.738-26.738 26.738s-26.739-11.995-26.739-26.738zm26.932-21.007c-.005 0-.01 0-.016 0-27.415 0-52.731-15.059-65.922-39.161-.062-.113-.124-.226-.185-.34-3.921-7.252-6.746-15.444-8.07-24.023-.001-.004-.002-.008-.002-.012-.63-4.07-.917-8.102-.917-11.561v-28.682c0-1.743.055-3.534.265-6.219h26.718c3.783 0 7.529-.379 11.219-1.138 15.707-3.234 29.016-13.118 36.842-26.568 9.631 16.553 27.569 27.706 48.061 27.706h26.822c.176 2.09.266 4.156.266 6.219v28.682c.001 41.436-33.803 75.097-75.081 75.097zm89.952-70.267c.19-3.577.218-34.313-.003-38.339 7.7 2.963 13.18 10.438 13.18 19.17-.001 8.73-5.478 16.205-13.177 19.169zm33.876-19.17c0-8.771 5.53-16.276 13.286-19.211-.201 3.634-.22 34.375-.003 38.422-7.755-2.937-13.283-10.44-13.283-19.211zm29.179 26.665c-.688-4.166-1.029-8.6-1.029-12.324 0-31.92-.083-30.45.265-34.9h26.718c20.19 0 38.273-10.885 48.062-27.706 9.631 16.553 27.569 27.706 48.061 27.706h26.821c.334 5.922.266-1.911.266 34.9 0 6.754-.984 13.811-2.832 20.376-.009.033-.019.066-.028.099-9.172 32.409-38.934 54.615-72.224 54.621-.004 0-.008 0-.013 0-36.665.001-68.087-26.721-74.067-62.772zm167.013 115.925v56.917h-185.478v-56.917c0-17.539 14.27-31.809 31.81-31.809h19.062c.181 22.592 18.582 41.4 41.737 41.4 22.672 0 41.552-18.33 41.737-41.4h19.323c6.624 0 12.78 2.037 17.879 5.515 2.134 1.907 13.93 9.563 13.93 26.294zm32.941-26.083h-7.049c-17.944 0-27.751-9.996-30.417-11.916-8.888-8.206-14.468-19.946-14.468-32.968v-5.824c6.299-9.049 11.078-19.553 13.709-30.628 5.414-.792 10.343-2.759 14.504-5.506 14.538 7.757 23.721 22.863 23.721 39.564z"/><path d="m159.58 256.676c-4.142 0-7.5 3.357-7.5 7.5 0 5.541-4.508 10.05-10.05 10.05-5.541 0-10.049-4.509-10.049-10.05 0-4.143-3.358-7.5-7.5-7.5s-7.5 3.357-7.5 7.5c0 13.813 11.237 25.05 25.049 25.05 13.813 0 25.05-11.237 25.05-25.05 0-4.143-3.358-7.5-7.5-7.5z"/><path d="m102.337 214.066h-7.508c-4.142 0-7.5 3.357-7.5 7.5s3.358 7.5 7.5 7.5l.008 9.963c0 4.143 3.358 7.5 7.5 7.5s7.5-3.357 7.5-7.5v-17.463c0-4.142-3.358-7.5-7.5-7.5z"/><path d="m189.797 214.066h-7.508c-4.142 0-7.5 3.357-7.5 7.5v17.463c0 4.143 3.358 7.5 7.5 7.5s7.5-3.357 7.5-7.5v-9.963h.008c4.142 0 7.5-3.357 7.5-7.5s-3.358-7.5-7.5-7.5z"/><path d="m369.094 289.226c13.812 0 25.049-11.237 25.049-25.05 0-4.143-3.358-7.5-7.5-7.5s-7.5 3.357-7.5 7.5c0 5.541-4.508 10.05-10.049 10.05-5.542 0-10.05-4.509-10.05-10.05 0-4.143-3.358-7.5-7.5-7.5s-7.5 3.357-7.5 7.5c0 13.812 11.238 25.05 25.05 25.05z"/><path d="m329.401 214.066h-7.508c-4.142 0-7.5 3.357-7.5 7.5s3.358 7.5 7.5 7.5l.008 9.963c0 4.143 3.358 7.5 7.5 7.5s7.5-3.357 7.5-7.5v-17.463c0-4.142-3.358-7.5-7.5-7.5z"/><path d="m409.354 246.529c4.142 0 7.5-3.357 7.5-7.5v-9.963h.008c4.142 0 7.5-3.357 7.5-7.5s-3.358-7.5-7.5-7.5h-7.508c-4.142 0-7.5 3.357-7.5 7.5v17.463c0 4.143 3.357 7.5 7.5 7.5z"/></g></svg>