<svg id="Capa_1" enable-background="new 0 0 511.15 511.15" height="512" viewBox="0 0 511.15 511.15" width="512" xmlns="http://www.w3.org/2000/svg"><g><path d="m503.65 339.575c4.143 0 7.5-3.358 7.5-7.5v-223.94c0-4.708-2.102-9.105-5.765-12.063-3.653-2.95-8.378-4.076-12.958-3.09-157.158 33.69-316.537 33.69-473.699.001-4.585-.986-9.312.139-12.964 3.088-3.663 2.959-5.764 7.356-5.764 12.064v41.03c0 4.142 3.358 7.5 7.5 7.5s7.5-3.358 7.5-7.5v-41.03c0-.066 0-.241.188-.394.173-.14.314-.109.39-.093 78.733 16.877 159.481 25.434 240 25.434s161.265-8.557 240-25.436c.067-.015.211-.045.383.094.188.152.188.328.188.394v74.655l-233.043 93.246c-9.209-42.689-47.018-73.802-91.64-73.802-34.779 0-66.312 19.098-82.563 49.302l-73.903-44.693v-22.677c0-4.142-3.358-7.5-7.5-7.5s-7.5 3.358-7.5 7.5v218.85c0 4.708 2.101 9.105 5.765 12.063 2.786 2.25 6.196 3.439 9.689 3.439 1.087 0 2.182-.115 3.268-.349 157.169-33.691 316.548-33.69 473.699-.001 4.589.987 9.313-.137 12.965-3.088 3.663-2.958 5.765-7.355 5.765-12.063v-35.94c0-4.142-3.357-7.5-7.5-7.5s-7.5 3.358-7.5 7.5v35.94c0 .066 0 .241-.188.394-.171.138-.314.11-.39.093-64.405-13.806-130.159-22.037-196.036-24.578l-100.813-60.969 297.426-119.009v133.128c0 4.142 3.358 7.5 7.5 7.5zm-248.071 38.492c-80.519 0-161.267 8.557-240.008 25.436-.069.016-.209.045-.382-.094-.189-.153-.189-.328-.189-.394v-178.644l254.286 153.787c-4.57-.055-9.139-.091-13.707-.091zm-153.826-118.759c13.545-25.755 40.245-42.073 69.714-42.073 38.347 0 70.697 27.348 77.469 64.472l-66.29 26.524z"/></g></svg>