<svg id="Capa_1" enable-background="new 0 0 512 512" style="fill:#293F2C;" height="512" viewBox="0 0 512 512" width="512" xmlns="http://www.w3.org/2000/svg"><g><g><path d="m485.53 443.951h-50.28l-55.288-32.757h26.919 3.913c14.51 0 26.315-11.805 26.315-26.315v-30.016c0-7.342-3.025-13.988-7.891-18.765 4.866-4.778 7.891-11.424 7.891-18.765v-30.016c0-11.837-7.857-21.871-18.63-25.167l-168.256-99.688v-1.048c0-6.938-5.644-12.582-12.582-12.582h-28.799v-36.75h6.56c4.169 0 7.549-3.38 7.549-7.549 0-57.64-46.892-104.533-104.531-104.533s-104.532 46.893-104.532 104.532c0 4.169 3.38 7.549 7.549 7.549h6.56v387.169c0 7.031 5.72 12.75 12.751 12.75h21.807c7.031 0 12.751-5.719 12.751-12.75v-40.2h86.229v40.2c0 7.031 5.72 12.75 12.751 12.75h21.807c7.031 0 12.751-5.719 12.751-12.75v-178.831c0-4.169-3.38-7.549-7.549-7.549s-7.549 3.38-7.549 7.549v176.483h-17.112v-384.82h17.112v44.299 64.026 53.208c0 4.169 3.38 7.549 7.549 7.549s7.549-3.38 7.549-7.549v-45.658h31.782l56.372 33.046h-26.647-6.026c-14.51 0-26.315 11.805-26.315 26.315v30.016c0 7.342 3.025 13.988 7.891 18.765-4.866 4.778-7.891 11.424-7.891 18.765v30.016c0 12.7 9.043 23.327 21.027 25.781l74.677 43.776c3.597 2.109 8.223.902 10.331-2.695s.902-8.222-2.695-10.331l-51.547-30.217h60.539l76.068 45.069v35.011l-44.797-26.261c-3.595-2.107-8.222-.902-10.331 2.695-2.108 3.597-.902 8.222 2.695 10.331l56.164 32.924c.024.014.049.023.073.036.528.303 1.096.542 1.694.711.073.021.146.038.219.056.227.057.457.102.691.138.079.012.157.026.236.036.297.036.598.059.905.059h51.572c6.938 0 12.582-5.644 12.582-12.582v-42.885c-.001-6.936-5.645-12.581-12.583-12.581zm-425.323 52.951h-17.112v-384.82h17.112zm101.327-52.951h-86.229v-30.162h86.229zm0-45.26h-86.229v-30.162h86.229zm0-45.261h-86.229v-30.163h86.229zm0-45.262h-86.229v-30.162h86.229zm0-45.26h-86.229v-30.162h86.229zm0-45.261h-86.229v-105.566h86.229zm7.549-120.664h-101.327-32.21-6.244c3.847-45.793 42.347-81.884 89.118-81.884 46.77 0 85.271 36.091 89.118 81.884h-6.244zm66.041 115.874h-26.282v-48.927h26.282zm186.886 172.022c0 4.911-3.177 9.084-7.58 10.6v-51.216c4.403 1.515 7.58 5.689 7.58 10.599zm-171.787-168.798v-36.071l136.699 80.991h-60.062-.008zm27.675 60.019h41.412v52.449h-41.412zm-24.791 11.216c0-5.667 4.228-10.353 9.693-11.1v52.217c-5.465-.747-9.693-5.433-9.693-11.1zm89.714 108.78h-78.498c-6.185 0-11.216-5.032-11.216-11.217v-30.016c0-6.185 5.031-11.216 11.216-11.216h6.026 56.51 15.962zm-8.412-67.548v-52.448h76.385c6.185 0 11.216 5.031 11.216 11.216v30.016c0 6.185-5.031 11.216-11.216 11.216h-3.913-56.51zm23.511 15.099h41.412v52.449h-41.412zm125.094 153.255h-41.506v-37.852h41.506z"/></g></g></svg>