<svg width="437" height="438" viewBox="0 0 437 438" fill="none" xmlns="http://www.w3.org/2000/svg">
<path d="M436.448 358.662C434.884 347.485 428.305 337.982 418.379 332.573L385.028 314.403C381.392 312.418 376.837 313.762 374.855 317.402C372.875 321.039 374.217 325.594 377.855 327.575L411.201 345.744C416.907 348.851 420.688 354.309 421.592 360.728C421.597 360.769 421.602 360.81 421.608 360.85C422.482 367.334 420.276 373.658 415.556 378.196L410.64 382.916L287.52 313.638L301.99 300.911C308.162 295.48 317.148 294.477 324.356 298.415L345.165 309.755C348.802 311.736 353.357 310.396 355.34 306.759C357.321 303.122 355.981 298.567 352.343 296.584L331.539 285.247C318.826 278.305 302.968 280.072 292.084 289.647L258.365 319.307C251.458 325.382 241.378 325.946 233.853 320.675C183.064 285.094 146.18 245.95 121.096 201.011C116.866 193.423 118.048 184.066 124.035 177.727L150.725 149.498C160.678 138.96 163.011 123.174 156.531 110.215L111.615 20.3832C106.612 10.3627 97.422 3.46001 86.4035 1.44411C75.3781 -0.575787 64.3336 2.63105 56.0981 10.2357L39.0389 25.9959C20.1819 43.415 7.70252 65.9418 2.95076 91.1385C-1.81 116.377 1.65483 141.837 12.9693 164.774C13.0192 164.88 13.0662 164.972 13.1052 165.048C20.2749 179.547 28.0275 193.725 36.1331 207.166C37.486 209.428 38.9449 211.817 40.4669 214.27C42.6517 217.788 47.2745 218.87 50.7943 216.686C54.3132 214.501 55.3951 209.878 53.2112 206.359C51.7323 203.976 50.3164 201.656 48.9914 199.442C41.0958 186.35 33.5542 172.558 26.5756 158.45C26.5366 158.368 26.4966 158.288 26.4556 158.208C6.74057 118.317 15.5491 69.3707 47.7645 38.4112L115.398 165.031L113.133 167.427C102.625 178.55 100.56 194.983 107.996 208.32C134.21 255.282 172.562 296.052 225.247 332.961C231.295 337.196 238.28 339.286 245.24 339.286C253.487 339.286 261.699 336.35 268.271 330.569L275.588 324.134L399.34 393.766L399.215 393.886C367.316 424.533 319.532 431.507 280.312 411.24C195.3 367.299 126.192 309.211 74.9051 238.597C72.4702 235.245 67.7805 234.5 64.4296 236.936C61.0778 239.371 60.3348 244.06 62.7687 247.412C115.442 319.936 186.316 379.54 273.423 424.568C290.569 433.427 309.136 437.743 327.581 437.743C357.465 437.743 387.017 426.407 409.603 404.707L425.946 389.013C434.098 381.175 437.938 370.28 436.503 359.087C436.489 358.944 436.47 358.804 436.448 358.662ZM59.1299 27.8548L66.2755 21.2541C71.0113 16.8813 77.361 15.0404 83.7037 16.1984C90.0373 17.3573 95.3201 21.3251 98.1979 27.0888L143.116 116.924C146.789 124.272 145.466 133.223 139.824 139.196L126.263 153.538L59.1299 27.8548Z" fill="#fff"/>
</svg>
