<?xml version="1.0" encoding="iso-8859-1"?>
<!-- Generator: Adobe Illustrator 19.0.0, SVG Export Plug-In . SVG Version: 6.00 Build 0)  -->
<svg version="1.1" id="Capa_1" xmlns="http://www.w3.org/2000/svg" xmlns:xlink="http://www.w3.org/1999/xlink" x="0px" y="0px"
	 viewBox="0 0 511.998 511.998" style="enable-background:new 0 0 511.998 511.998;" xml:space="preserve">
<g>
	<g>
		<path d="M423.866,233.263l-8.95-101.791c-1.087-12.36-11.263-21.682-23.672-21.682h-67.843V67.403
			C323.402,30.237,293.165,0,255.999,0s-67.403,30.237-67.403,67.403v42.389h-67.843c-12.409,0-22.585,9.321-23.672,21.682
			L77.652,352.441c-0.363,4.127,2.688,7.766,6.814,8.128c0.224,0.021,0.445,0.029,0.666,0.029c3.845,0,7.119-2.94,7.462-6.843
			l19.429-220.968c0.401-4.559,4.154-7.996,8.729-7.996h67.843v8.636c-12.401,3.316-21.563,14.644-21.563,28.076
			c0,16.025,13.038,29.063,29.063,29.063c16.025,0,29.063-13.037,29.063-29.063c0-13.432-9.162-24.76-21.563-28.076v-8.636h104.807
			v8.636c-12.401,3.316-21.563,14.644-21.563,28.076c0,16.025,13.038,29.063,29.063,29.063c16.025,0,29.063-13.037,29.063-29.063
			c0-13.432-9.162-24.76-21.563-28.076v-8.636h67.843c4.576,0,8.329,3.438,8.729,7.996l8.95,101.791
			c0.363,4.126,4.007,7.178,8.128,6.814C421.178,241.029,424.229,237.39,423.866,233.263z M210.158,161.504
			c0,7.754-6.309,14.063-14.063,14.063c-7.754,0-14.063-6.309-14.063-14.063c0-4.995,2.626-9.379,6.563-11.875v8.47
			c0,4.143,3.358,7.5,7.5,7.5c4.142,0,7.5-3.357,7.5-7.5v-8.47C207.532,152.125,210.158,156.509,210.158,161.504z M308.401,109.792
			H203.595V67.403c0-28.896,23.508-52.403,52.403-52.403c28.895,0,52.403,23.508,52.403,52.403V109.792z M329.965,161.504
			c0,7.754-6.309,14.063-14.063,14.063c-7.754,0-14.063-6.309-14.063-14.063c0-4.995,2.626-9.379,6.563-11.875v8.47
			c0,4.143,3.358,7.5,7.5,7.5c4.142,0,7.5-3.357,7.5-7.5v-8.47C327.338,152.125,329.965,156.509,329.965,161.504z"/>
	</g>
</g>
<g>
	<g>
		<path d="M446.103,486.153l-19.461-221.326c-0.363-4.126-4.01-7.191-8.128-6.813c-4.126,0.362-7.177,4.001-6.814,8.128
			l17.879,203.332h-277.08c-4.142,0-7.5,3.357-7.5,7.5s3.358,7.5,7.5,7.5h278.398l0.263,2.994c0.218,2.478-0.587,4.852-2.267,6.687
			c-1.68,1.834-3.975,2.844-6.462,2.844H89.567c-2.487,0-4.782-1.01-6.462-2.844c-1.68-1.835-2.485-4.209-2.267-6.687l0.263-2.994
			H120.5c4.142,0,7.5-3.357,7.5-7.5s-3.358-7.5-7.5-7.5H82.42l7.37-83.825c0.363-4.127-2.688-7.766-6.814-8.128
			c-4.119-0.377-7.765,2.688-8.128,6.813l-8.953,101.819c-0.582,6.622,1.659,13.23,6.148,18.132
			c4.489,4.901,10.876,7.713,17.523,7.713h332.865c6.647,0,13.034-2.812,17.523-7.713
			C444.445,499.384,446.685,492.775,446.103,486.153z"/>
	</g>
</g>
<g>
	<g>
		<path d="M335.695,292.288c-0.818-2.519-2.904-4.419-5.487-5l-44.493-10.005l-23.265-39.225c-1.351-2.277-3.803-3.674-6.451-3.674
			s-5.1,1.396-6.451,3.674l-23.265,39.225l-44.494,10.005c-2.583,0.581-4.669,2.481-5.487,5c-0.818,2.519-0.248,5.281,1.5,7.27
			l30.115,34.247l-4.233,45.407c-0.246,2.637,0.917,5.207,3.06,6.764c2.142,1.556,4.946,1.868,7.378,0.819l41.877-18.057
			l41.877,18.057c0.953,0.411,1.963,0.613,2.969,0.613c1.56,0,3.107-0.486,4.409-1.433c2.143-1.557,3.305-4.127,3.06-6.764
			l-4.233-45.407l30.115-34.247C335.943,297.569,336.513,294.807,335.695,292.288z M290.679,326.329
			c-1.363,1.55-2.027,3.593-1.835,5.648l3.36,36.037l-33.235-14.331c-0.948-0.409-1.959-0.613-2.97-0.613s-2.022,0.204-2.97,0.613
			l-33.235,14.331l3.36-36.037c0.191-2.056-0.473-4.099-1.835-5.648l-23.901-27.181l35.313-7.94
			c2.014-0.453,3.752-1.716,4.805-3.491L256,256.587l18.464,31.13c1.053,1.775,2.792,3.038,4.805,3.491l35.312,7.94L290.679,326.329
			z"/>
	</g>
</g>
<g>
</g>
<g>
</g>
<g>
</g>
<g>
</g>
<g>
</g>
<g>
</g>
<g>
</g>
<g>
</g>
<g>
</g>
<g>
</g>
<g>
</g>
<g>
</g>
<g>
</g>
<g>
</g>
<g>
</g>
</svg>
