<svg id="Capa_1" enable-background="new 0 0 512 512" height="512" viewBox="0 0 512 512" width="512" style="fill:#fff;" xmlns="http://www.w3.org/2000/svg"><path d="m504.5 497h-66.75v-31.204h23.834c4.143 0 7.5-3.357 7.5-7.5v-17.585c0-12.95-10.536-23.486-23.486-23.486h-29.248v-18.911h36.185c9.126 0 16.55-7.425 16.55-16.551v-39.95c0-9.126-7.424-16.55-16.55-16.55h-218.819c-9.125 0-16.55 7.424-16.55 16.55v39.95c0 9.126 7.424 16.551 16.55 16.551h36.185v18.911h-29.249c-12.95 0-23.486 10.536-23.486 23.486v17.585c0 4.143 3.358 7.5 7.5 7.5h23.834v31.204h-138.81v-123.97c52.859-3.853 94.69-48.089 94.69-101.914 0-56.348-45.842-102.19-102.19-102.19-15.779 0-30.919 3.507-45 10.425-3.718 1.826-5.251 6.32-3.425 10.038s6.321 5.249 10.038 3.425c12.006-5.897 24.921-8.888 38.387-8.888 48.077 0 87.19 39.113 87.19 87.19 0 45.55-35.112 83.048-79.69 86.864v-12.32l23.104-19.118c3.191-2.641 3.638-7.368.997-10.56-2.64-3.191-7.368-3.638-10.56-.997l-13.542 11.206v-5.427c0-4.143-3.358-7.5-7.5-7.5s-7.5 3.357-7.5 7.5v21.378.008 15.831c-44.577-3.817-79.689-41.315-79.689-86.865 0-23.513 9.224-45.559 25.972-62.077 2.949-2.909 2.982-7.657.073-10.606s-7.658-2.982-10.606-.073c-19.628 19.358-30.439 45.197-30.439 72.756 0 53.825 41.831 98.061 94.69 101.914v123.97h-87.19c-4.142 0-7.5 3.357-7.5 7.5s3.358 7.5 7.5 7.5h497c4.143 0 7.5-3.357 7.5-7.5s-3.357-7.5-7.5-7.5zm-272.333-115.237v-39.95c0-.854.695-1.55 1.55-1.55h218.818c.854 0 1.55.695 1.55 1.55v39.95c0 .855-.695 1.551-1.55 1.551h-218.819c-.854 0-1.549-.695-1.549-1.551zm52.734 16.551h116.449v18.911h-116.449zm-21.4 67.482h24.224c4.143 0 7.5-3.357 7.5-7.5s-3.357-7.5-7.5-7.5h-55.558v-10.085c0-4.68 3.807-8.486 8.486-8.486h204.945c4.68 0 8.486 3.807 8.486 8.486v10.085h-136.372c-4.143 0-7.5 3.357-7.5 7.5s3.357 7.5 7.5 7.5h105.038v31.204h-159.249z"/><path d="m123.451 91.646c3.486-2.237 4.499-6.876 2.262-10.363-2.036-3.172-3.111-6.845-3.111-10.62 0-10.869 8.843-19.712 19.712-19.712 8.298 0 15.756 5.246 18.557 13.054 1.121 3.124 4.168 5.135 7.475 4.956 3.313-.184 6.112-2.523 6.881-5.751 3.449-14.491 16.272-24.611 31.184-24.611 17.681 0 32.065 14.384 32.065 32.065 0 4.092-.769 8.092-2.286 11.887-1.537 3.847.335 8.21 4.181 9.748.913.365 1.854.538 2.781.538 2.978 0 5.794-1.785 6.967-4.719 2.228-5.574 3.357-11.446 3.357-17.454 0-25.952-21.113-47.065-47.065-47.065-16.674 0-31.569 8.623-39.959 22.138-6.347-6.131-14.95-9.785-24.138-9.785-19.141 0-34.712 15.572-34.712 34.712 0 6.653 1.897 13.126 5.486 18.721 2.237 3.484 6.876 4.496 10.363 2.261z"/><path d="m294.221 136.292c3.486-2.237 4.498-6.877 2.261-10.363-1.083-1.689-1.656-3.645-1.656-5.655 0-5.792 4.712-10.504 10.504-10.504 4.422 0 8.396 2.795 9.889 6.957 1.121 3.124 4.167 5.137 7.475 4.955 3.313-.184 6.112-2.523 6.881-5.751 2.009-8.439 9.478-14.333 18.163-14.333 10.299 0 18.677 8.378 18.677 18.677 0 2.383-.448 4.712-1.331 6.924-1.536 3.847.336 8.21 4.183 9.747.913.365 1.854.537 2.78.537 2.978 0 5.795-1.786 6.967-4.72 1.594-3.989 2.401-8.19 2.401-12.488 0-18.569-15.107-33.677-33.677-33.677-10.901 0-20.739 5.151-26.936 13.417-4.354-3.322-9.759-5.244-15.472-5.244-14.063 0-25.504 11.441-25.504 25.504 0 4.889 1.395 9.646 4.033 13.757 2.237 3.486 6.875 4.497 10.362 2.26z"/><path d="m451.107 81.335c3.745 1.765 8.216.162 9.982-3.584 1.768-3.747.162-8.216-3.584-9.983-9.663-4.557-15.906-14.396-15.906-25.067.001-15.275 12.426-27.701 27.701-27.701s27.7 12.426 27.7 27.701c0 10.671-6.243 20.51-15.906 25.067-3.746 1.767-5.352 6.236-3.584 9.983 1.279 2.713 3.976 4.303 6.788 4.303 1.072 0 2.16-.231 3.194-.718 14.888-7.022 24.508-22.187 24.508-38.635 0-23.546-19.155-42.701-42.7-42.701s-42.7 19.155-42.7 42.701c0 16.448 9.62 31.613 24.507 38.634z"/></svg>