<svg id="Capa_1" enable-background="new 0 0 512 512" height="512" viewBox="0 0 512 512" width="512" xmlns="http://www.w3.org/2000/svg"><g><path d="m256 332c74.99 0 136-61.009 136-136 0-32.667-11.756-64.249-33.102-88.929-.001 0-85.897-99.29-85.897-99.29-4.283-4.945-10.48-7.781-17.001-7.781s-12.718 2.836-17.004 7.785l-85.895 99.286c-21.345 24.679-33.101 56.261-33.101 88.929 0 74.991 61.01 136 136 136zm-91.554-215.116 85.891-99.282c1.433-1.653 3.497-2.602 5.663-2.602s4.23.949 5.66 2.599l85.893 99.285c18.989 21.954 29.447 50.052 29.447 79.116 0 66.72-54.28 121-121 121s-121-54.28-121-121c0-29.065 10.458-57.163 29.446-79.116z"/><path d="m504.715 361.091c-9.389-.269-18.352-4.48-24.591-11.552-1.423-1.614-3.472-2.539-5.624-2.539s-4.2.925-5.624 2.539c-6.484 7.351-15.812 11.567-25.59 11.567-9.777 0-19.105-4.216-25.591-11.567-1.424-1.614-3.472-2.538-5.624-2.538s-4.201.925-5.624 2.539c-6.484 7.351-15.812 11.567-25.59 11.567s-19.105-4.216-25.591-11.567c-1.424-1.614-3.473-2.538-5.624-2.538-2.152 0-4.201.925-5.624 2.539-6.484 7.351-15.812 11.567-25.59 11.567s-19.105-4.216-25.59-11.567c-1.423-1.614-3.472-2.539-5.624-2.539s-4.2.924-5.624 2.538c-6.485 7.351-15.813 11.567-25.591 11.567s-19.105-4.216-25.59-11.567c-1.423-1.614-3.472-2.539-5.624-2.539s-4.2.924-5.624 2.538c-6.485 7.351-15.813 11.567-25.591 11.567s-19.105-4.216-25.59-11.567c-1.423-1.614-3.472-2.539-5.624-2.539s-4.2.924-5.624 2.538c-6.485 7.351-15.813 11.567-25.591 11.567s-19.105-4.216-25.59-11.567c-1.423-1.614-3.472-2.539-5.624-2.539s-4.201.925-5.624 2.539c-6.484 7.351-15.812 11.567-25.59 11.567s-19.106-4.216-25.591-11.567c-1.422-1.613-3.47-2.538-5.622-2.538s-4.201.925-5.624 2.539c-6.239 7.072-15.202 11.283-24.591 11.552-4.056.117-7.285 3.438-7.285 7.497v30.018c0 4.142 3.357 7.5 7.5 7.5s7.5-3.358 7.5-7.5v-23.283c8.245-1.498 16.013-5.1 22.496-10.428 8.737 7.195 19.762 11.211 31.219 11.211 11.455 0 22.478-4.015 31.214-11.208 8.736 7.192 19.759 11.208 31.214 11.208s22.478-4.016 31.215-11.208c8.736 7.193 19.759 11.208 31.214 11.208 11.454 0 22.478-4.016 31.215-11.208 8.736 7.193 19.759 11.208 31.214 11.208s22.478-4.016 31.215-11.208c8.736 7.193 19.759 11.208 31.214 11.208s22.478-4.015 31.214-11.208c8.737 7.192 19.76 11.208 31.215 11.208s22.478-4.015 31.214-11.208c8.737 7.192 19.761 11.208 31.215 11.208 11.457 0 22.48-4.016 31.218-11.211 6.483 5.328 14.251 8.93 22.496 10.428v44.645c-6.467-1.72-12.379-5.331-16.876-10.428-1.423-1.614-3.472-2.539-5.624-2.539s-4.2.925-5.624 2.539c-6.484 7.351-15.812 11.567-25.59 11.567-9.777 0-19.105-4.216-25.591-11.567-1.424-1.614-3.472-2.538-5.624-2.538s-4.201.925-5.624 2.539c-6.484 7.351-15.812 11.567-25.59 11.567s-19.105-4.216-25.591-11.567c-1.424-1.614-3.473-2.538-5.624-2.538-2.152 0-4.201.925-5.624 2.539-6.484 7.351-15.812 11.567-25.59 11.567s-19.105-4.216-25.59-11.567c-1.423-1.614-3.472-2.539-5.624-2.539s-4.2.924-5.624 2.538c-6.485 7.351-15.813 11.567-25.591 11.567s-19.105-4.216-25.59-11.567c-1.423-1.614-3.472-2.539-5.624-2.539s-4.2.924-5.624 2.538c-6.485 7.351-15.813 11.567-25.591 11.567s-19.105-4.216-25.59-11.567c-1.423-1.614-3.472-2.539-5.624-2.539s-4.2.924-5.624 2.538c-6.485 7.351-15.813 11.567-25.591 11.567s-19.105-4.216-25.59-11.567c-1.423-1.614-3.472-2.539-5.624-2.539s-4.201.925-5.624 2.539c-6.484 7.351-15.812 11.567-25.59 11.567s-19.106-4.216-25.591-11.567c-1.424-1.614-3.472-2.539-5.624-2.539s-4.201.925-5.624 2.539c-6.239 7.072-15.202 11.283-24.591 11.552-4.056.117-7.285 3.438-7.285 7.497v75.912c0 4.142 3.357 7.5 7.5 7.5h497c4.143 0 7.5-3.358 7.5-7.5v-135.912c0-4.059-3.229-7.38-7.285-7.497zm-7.715 135.909h-482v-61.678c8.245-1.498 16.013-5.1 22.496-10.428 8.737 7.195 19.762 11.211 31.219 11.211 11.455 0 22.478-4.015 31.214-11.208 8.736 7.192 19.759 11.208 31.214 11.208s22.478-4.016 31.215-11.208c8.736 7.193 19.759 11.208 31.214 11.208 11.454 0 22.478-4.016 31.215-11.208 8.736 7.193 19.759 11.208 31.214 11.208s22.478-4.016 31.215-11.208c8.736 7.193 19.759 11.208 31.214 11.208s22.478-4.015 31.214-11.208c8.737 7.192 19.76 11.208 31.215 11.208s22.478-4.015 31.214-11.208c8.737 7.192 19.761 11.208 31.215 11.208 11.457 0 22.48-4.016 31.218-11.211 6.483 5.328 14.251 8.93 22.496 10.428v61.678z"/></g></svg>