<svg id="Layer_1" enable-background="new 0 0 512 512" height="512" viewBox="0 0 512 512" width="512" xmlns="http://www.w3.org/2000/svg"><g><path d="m497 467.137v-333.427c8.729-3.096 15-11.432 15-21.21 0-12.407-10.094-22.5-22.5-22.5h-15v-15.755c17.096-3.484 30-18.635 30-36.745 0-20.678-16.822-37.5-37.5-37.5s-37.5 16.822-37.5 37.5c0 18.11 12.904 33.261 30 36.745v15.755h-15c-12.406 0-22.5 10.093-22.5 22.5 0 9.777 6.271 18.114 15 21.21v50.535h-14.027c-28.559 0-54.305-16.932-65.807-42.691-2.096-4.694-17.196-48.167-19.025-53.368-11.226-31.922-40.846-54.964-74.641-57.863v-22.823c0-4.142-3.357-7.5-7.5-7.5-4.142 0-7.5 3.358-7.5 7.5v22.823c-33.688 2.869-63.341 25.9-74.641 57.864.314 4.544-17.78 50.579-19.025 53.368-11.502 25.759-37.247 42.69-65.807 42.69h-14.027v-50.535c8.729-3.096 15-11.432 15-21.21 0-12.407-10.093-22.5-22.5-22.5h-15v-15.755c17.096-3.484 30-18.635 30-36.745 0-20.678-16.822-37.5-37.5-37.5s-37.5 16.822-37.5 37.5c0 18.11 12.904 33.261 30 36.745v15.755h-15c-12.407 0-22.5 10.093-22.5 22.5 0 9.778 6.271 18.114 15 21.21v91.481c0 4.142 3.358 7.5 7.5 7.5s7.5-3.358 7.5-7.5v-90.191h30v331.937h-30v-206.746c0-4.142-3.358-7.5-7.5-7.5s-7.5 3.358-7.5 7.5v206.946c-8.466 1.221-15 8.512-15 17.321v10.021c0 9.661 7.851 17.521 17.5 17.521h477c9.649 0 17.5-7.86 17.5-17.521v-10.021c0-8.809-6.534-16.1-15-17.321zm-52.5-429.637c0-12.407 10.094-22.5 22.5-22.5s22.5 10.093 22.5 22.5-10.094 22.5-22.5 22.5-22.5-10.093-22.5-22.5zm0 67.5h45c4.136 0 7.5 3.364 7.5 7.5s-3.364 7.5-7.5 7.5h-45c-4.136 0-7.5-3.364-7.5-7.5s3.364-7.5 7.5-7.5zm37.5 30v331.937h-30v-331.937zm-77.12 62.326c5.871 1.251 11.926 1.919 18.093 1.919h14.027v219.231h-32.12zm-47.13-27.497c8.823 9.962 19.829 17.793 32.13 22.862v225.785h-32.13zm-94.25-124.438c11.646 1.22 22.624 5.26 32.12 11.516v215.843c0 4.142 3.357 7.5 7.5 7.5s7.5-3.358 7.5-7.5v-202.663c5.747 6.668 10.334 14.444 13.37 23.076 1.433 4.074 17.178 49.071 18.76 52.817v272.497h-32.13v-110.727c0-4.142-3.357-7.5-7.5-7.5s-7.5 3.358-7.5 7.5v110.726h-32.12zm0 388.085h173.5v33.461h-173.5zm-47.12-376.569c9.496-6.256 20.474-10.295 32.12-11.516v373.085h-32.12zm-47.13 89.072c1.376-3.207 17.379-48.891 18.76-52.817 3.036-8.632 7.623-16.408 13.37-23.076v348.39h-32.13zm-47.13 46.712c12.301-5.069 23.307-12.9 32.13-22.862v248.647h-32.13zm126.38 240.785v33.461h-173.5v-33.461zm-159.473-234.231c6.167 0 12.221-.668 18.093-1.919v221.15h-32.12v-219.231zm-66.527-161.745c0-12.407 10.093-22.5 22.5-22.5s22.5 10.093 22.5 22.5-10.093 22.5-22.5 22.5-22.5-10.093-22.5-22.5zm0 82.5c-4.136 0-7.5-3.364-7.5-7.5s3.364-7.5 7.5-7.5h45c4.136 0 7.5 3.364 7.5 7.5s-3.364 7.5-7.5 7.5zm474.5 374.479c0 1.39-1.121 2.521-2.5 2.521h-477c-1.378 0-2.5-1.131-2.5-2.521v-10.021c0-1.39 1.122-2.521 2.5-2.521h477c1.379 0 2.5 1.131 2.5 2.521z" fill="rgb(0,0,0)"/></g></svg>