<svg width="20" height="21" viewBox="0 0 20 21" fill="none" xmlns="http://www.w3.org/2000/svg">
<g clip-path="url(#clip0)">
<path d="M18.5492 4.63697C18.4861 4.21236 18.2009 3.84674 17.8049 3.68275L10.4695 0.64498C10.1668 0.519707 9.83343 0.519707 9.53073 0.64498L2.19526 3.68275C1.79929 3.84674 1.51409 4.21236 1.45097 4.63697C1.29694 5.67314 1.03874 8.41455 1.96475 11.4838C2.47975 13.1908 3.28675 14.7616 4.36331 16.1528C5.65565 17.8227 7.35151 19.2507 9.40382 20.397C9.58772 20.4997 9.7939 20.551 10.0001 20.551C10.2063 20.551 10.4125 20.4997 10.5964 20.397C12.6487 19.2507 14.3446 17.8227 15.6369 16.1527C16.7134 14.7616 17.5204 13.1907 18.0354 11.4838C18.9615 8.41455 18.7032 5.67314 18.5492 4.63697ZM17.4751 11.3147C16.3748 14.9616 13.9645 17.8453 10.311 19.886C10.1194 19.9931 9.88108 19.9931 9.68929 19.886C6.03577 17.8454 3.62538 14.9616 2.52511 11.3147C1.63327 8.35873 1.88171 5.72018 2.02991 4.72299C2.06296 4.50064 2.21214 4.30924 2.41921 4.22354L9.75468 1.18576C9.83382 1.15299 9.91698 1.13658 10.0001 1.13658C10.0833 1.13658 10.1665 1.15299 10.2456 1.18576L17.5811 4.22354C17.7882 4.30928 17.9373 4.50064 17.9703 4.72299C18.1185 5.72021 18.3669 8.35877 17.4751 11.3147Z" fill="white"/>
<path d="M16.2901 5.05782L13.423 3.88774C13.2733 3.82673 13.1025 3.89849 13.0415 4.04813C12.9805 4.19778 13.0523 4.3686 13.2019 4.42966L16.069 5.59974C16.2162 5.65978 16.3221 5.79313 16.3454 5.94771C16.4638 6.73267 16.6622 8.80966 15.9498 11.1368C15.0709 14.0075 13.1445 16.2781 10.2241 17.8857C10.0864 17.9614 9.91535 17.9614 9.7777 17.8857C6.85727 16.2781 4.93086 14.0075 4.05199 11.1368C3.33945 8.8097 3.53789 6.73271 3.65629 5.94771C3.67961 5.7931 3.78551 5.65978 3.93274 5.59974L9.82438 3.19532C9.93649 3.14954 10.0652 3.1495 10.1774 3.19532L11.9468 3.91747C12.0965 3.97849 12.2673 3.90669 12.3284 3.75708C12.3894 3.60743 12.3176 3.43661 12.168 3.37556L10.3985 2.65341C10.142 2.54876 9.85965 2.54884 9.6032 2.65341L3.71156 5.05782C3.37442 5.1954 3.13145 5.50298 3.07754 5.86044C2.9532 6.68493 2.74469 8.86626 3.49231 11.3081C3.9082 12.6666 4.55988 13.9168 5.42926 15.0238C6.47219 16.3519 7.84023 17.4873 9.49543 18.3984C9.65133 18.4842 9.82606 18.5271 10.0009 18.5271C10.1756 18.527 10.3504 18.4842 10.5063 18.3984C12.1615 17.4873 13.5296 16.3519 14.5725 15.0238C15.4418 13.9168 16.0935 12.6666 16.5094 11.3081C17.257 8.86622 17.0485 6.68489 16.9241 5.86044C16.8702 5.50294 16.6273 5.1954 16.2901 5.05782Z" fill="white"/>
</g>
<defs>
<clipPath id="clip0">
<rect width="20" height="20" fill="white" transform="translate(0 0.550781)"/>
</clipPath>
</defs>
</svg>
