<svg id="Capa_1" enable-background="new 0 0 512.14 512.14" height="512" style="fill:#fff;" viewBox="0 0 512.14 512.14" width="512" xmlns="http://www.w3.org/2000/svg"><path d="m464.614 175.54c0-56.221-19.785-111.033-55.711-154.341-8.626-10.396-24.102-11.838-34.498-3.214-10.397 8.625-11.84 24.101-3.215 34.499 1.655 1.994 3.261 4.023 4.829 6.077l-12.489 12.488c-32.018-43.082-83.284-71.049-140.964-71.049-44.414 0-86.826 16.687-119.423 46.985-32.422 30.135-52.166 70.895-55.595 114.77-.322 4.13 2.764 7.739 6.894 8.062 4.121.326 7.739-2.763 8.062-6.893.318-4.072.796-8.099 1.416-12.079h39.075c17.839 0 32.353 14.513 32.353 32.353v16.792c0 26.11 21.248 47.352 47.365 47.352 17.536 0 32.352 14.815 32.352 32.353v56.212c-29.485-1.36-57.043-10.705-80.428-26.014-.542-.479-1.136-.866-1.763-1.162-37.704-25.396-64.199-66.463-69.776-114.564-.478-4.116-4.219-7.057-8.313-6.586-4.115.477-7.063 4.199-6.587 8.314 4.918 42.424 25.252 81.6 57.256 110.311 4.062 3.644 8.273 7.081 12.616 10.307l-12.484 12.484c-2.071-1.581-4.116-3.202-6.126-4.871-5.035-4.181-11.393-6.153-17.913-5.544-6.517.604-12.407 3.71-16.587 8.746-4.181 5.035-6.149 11.396-5.545 17.913s3.711 12.407 8.746 16.587c39.871 33.099 89.501 52.497 141.012 55.376v39.938h-40.254c-12.683 0-24.609 4.942-33.58 13.913-8.977 8.964-13.92 20.892-13.92 33.587 0 4.142 3.357 7.5 7.5 7.5h107.279c4.143 0 7.5-3.358 7.5-7.5s-3.357-7.5-7.5-7.5h-98.915c1.367-5.815 4.326-11.15 8.659-15.477 6.141-6.141 14.301-9.523 22.977-9.523h130c15.34 0 28.232 10.683 31.627 25h-61.657c-4.143 0-7.5 3.358-7.5 7.5s3.357 7.5 7.5 7.5h70.03c4.143 0 7.5-3.358 7.5-7.5 0-26.191-21.309-47.5-47.5-47.5h-40.246v-42.245c116.4-17.488 205.941-118.159 205.941-239.357zm-281.902 56.802c-17.847 0-32.365-14.513-32.365-32.352v-16.792c0-26.11-21.242-47.353-47.353-47.353h-35.988c17.868-69.583 81.598-120.845 155.56-120.845 21.925 0 42.834 4.423 61.891 12.415v24.455c0 13.328-10.843 24.17-24.17 24.17-.233 0-.468.011-.7.033-22.978 2.154-36.269 15.44-38.438 38.422-.022.234-.033.469-.033.705v8.15c0 4.142 3.357 7.5 7.5 7.5s7.5-3.358 7.5-7.5v-7.786c1.553-15.408 9.141-22.988 24.552-24.526 21.424-.204 38.789-17.696 38.789-39.168v-17.224c22.887 12.54 42.398 30.496 56.809 52.13.002.003.004.006.006.009 16.944 25.441 26.835 55.963 26.835 88.756 0 19.99-3.683 39.133-10.389 56.8h-38.162c-9.416-.979-13.879-5.447-14.852-14.865-.212-16.074-13.35-29.085-29.468-29.085h-29.949c-13.328 0-24.171-10.843-24.171-24.17v-8.19c0-4.142-3.357-7.5-7.5-7.5s-7.5 3.358-7.5 7.5v8.19c0 21.598 17.572 39.17 39.171 39.17h29.949c7.979 0 14.471 6.496 14.471 14.48 0 .234.011.469.033.703 1.593 16.936 11.801 27.141 28.744 28.734.233.022.468.033.702.033h31.94c-25.343 50.466-76.516 85.808-136.063 88.56v-56.205c0-12.519-4.961-24.375-13.969-33.383-9.008-9.01-20.864-13.971-33.382-13.971zm-51.994 92.733c27.393 16.868 59.014 25.955 91.594 26.002.084.003.167.013.252.013.087 0 .171-.01.258-.013 72.774-.104 135.303-44.722 161.778-108.029.119-.25.225-.506.315-.77 8.494-20.586 13.192-43.122 13.192-66.738 0-33.648-9.524-65.11-26.007-91.846l12.669-12.669c20.006 31.02 30.845 67.381 30.845 104.515 0 106.448-86.603 193.05-193.051 193.05-37.136 0-73.495-10.839-104.515-30.845zm-56.37 18.778c-.234-2.527.529-4.993 2.15-6.946 1.621-1.952 3.905-3.157 6.432-3.391.3-.028.598-.042.896-.042 2.209 0 4.33.763 6.051 2.191 3.993 3.315 8.106 6.459 12.316 9.451.004.002.007.005.011.008 35.039 24.894 77.213 38.466 120.36 38.466 114.72 0 208.051-93.331 208.051-208.05 0-43.118-13.555-85.267-38.418-120.293-.086-.133-.181-.261-.276-.39-2.912-4.082-5.969-8.073-9.185-11.95-3.345-4.032-2.785-10.033 1.246-13.377 4.033-3.345 10.032-2.785 13.377 1.246 33.697 40.622 52.256 92.033 52.256 144.764 0 125.196-101.854 227.05-227.051 227.05-52.76 0-104.192-18.576-144.823-52.306-1.953-1.62-3.157-3.905-3.393-6.431zm169.323 113.284h-19.5v-39.568c6.565-.043 13.067-.352 19.5-.91z"/></svg>