<svg id="Capa_1" enable-background="new 0 0 512 512" height="512" viewBox="0 0 512 512" width="512" xmlns="http://www.w3.org/2000/svg"><g><path d="m255.958 201.945c18.358 0 33.294-14.937 33.294-33.295 0-18.359-14.936-33.296-33.294-33.296-18.359 0-33.295 14.937-33.295 33.296s14.936 33.295 33.295 33.295zm0-51.591c10.087 0 18.294 8.207 18.294 18.296 0 10.088-8.207 18.295-18.294 18.295-10.088 0-18.295-8.207-18.295-18.295s8.207-18.296 18.295-18.296z"/><path d="m488.828 254.002-125.792-72.947v-15.692c0-.549.02-.976.035-1.321.192-4.391-1.074-6.446-3.985-9.393-.223-.226-.459-.438-.709-.633l-92.279-72.316c-.755-.752-1.634-1.599-2.64-2.393v-42.508h18.153c4.142 0 7.5-3.357 7.5-7.5s-3.358-7.5-7.5-7.5h-18.153v-14.299c0-4.143-3.358-7.5-7.5-7.5s-7.5 3.357-7.5 7.5v14.299h-18.153c-4.142 0-7.5 3.357-7.5 7.5s3.358 7.5 7.5 7.5h18.153v42.507c-1.006.794-1.885 1.641-2.64 2.393l-92.279 72.316c-.25.195-.486.407-.709.633-2.911 2.946-4.178 5.002-3.985 9.393.015.346.035.772.035 1.321v15.693l-125.737 72.947c-12.818 1.115-22.91 11.899-22.91 25.001 0 12.336 8.948 22.616 20.692 24.708v84.767c0 4.143 3.358 7.5 7.5 7.5s7.5-3.357 7.5-7.5v-84.371h112.953v192.893h-112.952v-74.337c0-4.143-3.358-7.5-7.5-7.5s-7.5 3.357-7.5 7.5v76.225c0 7.231 5.87 13.112 13.084 13.112h443.951c7.215 0 13.084-5.882 13.084-13.112v-195.177c11.76-2.09 20.721-12.37 20.721-24.708.001-13.104-10.105-23.887-22.938-25.001zm-125.792-55.608 95.715 55.506h-80.763c1.194-2.869 1.857-6.013 1.857-9.31 0-10.8-7.065-19.975-16.809-23.147zm-107.612-105.166c.185-.145.363-.298.533-.46.17.162.348.315.533.46l91.548 71.743c-.001.126-.002.256-.002.392v54.891h-184.157v-54.891c0-.136-.001-.266-.002-.392zm-106.545 105.169v22.384c-10.996 2.328-19.275 12.118-19.275 23.81 0 3.297.663 6.44 1.857 9.31h-78.251zm0 90.709h-123.543c-5.571 0-10.103-4.532-10.103-10.104 0-5.569 4.53-10.1 10.098-10.102.004 0 .008.001.011.001.005 0 .01-.001.015-.001h123.521v20.206zm157.262 207.894h-100.31v-19.895h100.311v19.895zm-87.64-34.895v-35.785c0-18.088 12.897-33.222 29.985-36.704v72.489zm44.985 0v-72.489c17.088 3.482 29.985 18.615 29.985 36.704v35.785zm92.05-208.205h-83.847c-4.142 0-7.5 3.357-7.5 7.5s3.358 7.5 7.5 7.5h76.347v228.1h-26.895v-20.563c0-7.34-5.549-13.4-12.67-14.227v-35.89c0-28.926-23.544-52.458-52.485-52.458s-52.485 23.532-52.485 52.458v35.889c-7.122.827-12.67 6.887-12.67 14.227v20.564h-26.952v-200.394-27.706h73.172c4.142 0 7.5-3.357 7.5-7.5s-3.358-7.5-7.5-7.5h-80.672-2.466c-5.133 0-9.309-4.176-9.309-9.31 0-5.149 4.176-9.338 9.309-9.338h201.624c5.133 0 9.309 4.188 9.309 9.338-.001 5.135-4.177 9.31-9.31 9.31zm120.51 243.1h-113.01v-192.894h113.01zm10.589-207.894h-123.542v-20.206h123.521c.005 0 .01.001.015.001.004 0 .008-.001.011-.001 5.584.003 10.127 4.534 10.127 10.102 0 5.572-4.545 10.104-10.132 10.104z"/><path d="m110.771 404c5.354 0 9.711-4.369 9.711-9.739v-29.48c0-15.483-12.596-28.08-28.079-28.08s-28.079 12.597-28.079 28.08v29.48c0 5.37 4.369 9.739 9.739 9.739zm-31.448-39.22c0-7.212 5.867-13.08 13.079-13.08s13.079 5.868 13.079 13.08v24.22h-26.158z"/><path d="m401.23 404h36.708c5.354 0 9.711-4.369 9.711-9.739v-29.48c0-15.483-12.596-28.08-28.079-28.08s-28.079 12.597-28.079 28.08v29.48c-.001 5.37 4.368 9.739 9.739 9.739zm5.26-39.22c0-7.212 5.867-13.08 13.079-13.08s13.079 5.868 13.079 13.08v24.22h-26.158z"/><path d="m227.878 315.797v29.509c0 5.37 4.356 9.739 9.711 9.739h36.708c5.37 0 9.739-4.369 9.739-9.739v-29.509c0-15.467-12.596-28.051-28.079-28.051s-28.079 12.584-28.079 28.051zm41.159 0v24.248h-26.158v-24.248c0-7.196 5.867-13.051 13.079-13.051s13.079 5.855 13.079 13.051z"/></g></svg>