<svg id="Capa_1" enable-background="new 0 0 512 512" height="512" viewBox="0 0 512 512" width="512" xmlns="http://www.w3.org/2000/svg"><g><g><path d="m114.375 336.813v-10.102c0-4.142-3.357-7.5-7.5-7.5s-7.5 3.358-7.5 7.5v10.102c0 4.142 3.357 7.5 7.5 7.5s7.5-3.358 7.5-7.5z"/><path d="m141.65 336.813v-10.102c0-4.142-3.357-7.5-7.5-7.5s-7.5 3.358-7.5 7.5v10.102c0 4.142 3.357 7.5 7.5 7.5s7.5-3.358 7.5-7.5z"/><path d="m168.924 336.813v-10.102c0-4.142-3.357-7.5-7.5-7.5s-7.5 3.358-7.5 7.5v10.102c0 4.142 3.357 7.5 7.5 7.5s7.5-3.358 7.5-7.5z"/><path d="m500.874 482.481-20.212-21.969c-5.604-6.091-8.689-14.004-8.689-22.28v-42.431c11.642-3.28 20.203-13.987 20.203-26.663v-49.498c0-19.984-12.6-38.051-31.353-44.956l-175.316-64.551c-20.791-7.655-34.76-27.684-34.76-49.839v-152.794c0-4.142-3.357-7.5-7.5-7.5h-180.819c-4.143 0-7.5 3.358-7.5 7.5v79.473c0 4.142 3.357 7.5 7.5 7.5s7.5-3.358 7.5-7.5v-71.973h165.819v65.813h-32.906c-4.143 0-7.5 3.358-7.5 7.5v71.984c0 45.262 28.542 86.185 71.024 101.832l91.762 33.783c4.232 1.558 8.603 2.302 12.923 2.302 13.584 0 26.674-7.347 33.407-19.824l3.815-7.069 47.367 17.441c12.882 4.743 21.536 17.153 21.536 30.88v49.498c0 7.004-5.698 12.703-12.703 12.703h-140.645c-4.116 0-8.261-.351-12.319-1.042l-68.616-11.696c-10.689-1.824-21.71.987-30.223 7.708-.008.006-.016.013-.023.019-4.104 3.231-9.237 5.011-14.461 5.011h-24.265c-4.143 0-7.5 3.358-7.5 7.5s3.357 7.5 7.5 7.5h24.265c8.59 0 17.034-2.931 23.776-8.254.006-.005.012-.01.018-.014 5.184-4.085 11.888-5.793 18.394-4.683l68.616 11.696c3.497.596 7.049.973 10.603 1.144v37.059c0 7.004-5.698 12.703-12.703 12.703h-25.349c-4.143 0-7.5 3.358-7.5 7.5s3.357 7.5 7.5 7.5h25.349c15.275 0 27.703-12.428 27.703-27.703v-36.947h25.406v36.947c0 15.275 12.428 27.703 27.703 27.703h16.163c15.275 0 27.703-12.428 27.703-27.703v-36.947h25.406v41.391c0 12.048 4.492 23.567 12.65 32.436l20.212 21.969c1.001 1.088.723 2.226.468 2.807s-.903 1.553-2.382 1.553h-466.48v-12.703c0-12.575 10.23-22.805 22.805-22.805h12.122c15.275 0 27.703-12.428 27.703-27.703v-36.947h25.406v36.947c0 15.275 12.428 27.703 27.703 27.703h109.264c4.143 0 7.5-3.358 7.5-7.5s-3.357-7.5-7.5-7.5h-109.264c-7.005 0-12.703-5.699-12.703-12.703v-36.947h14.354c4.143 0 7.5-3.358 7.5-7.5s-3.357-7.5-7.5-7.5h-68.321c-12.575 0-22.806-10.23-22.806-22.805v-94.76c0-15.096 3.568-30.213 10.32-43.716 7.787-15.574 11.903-33.01 11.903-50.424v-48.137c0-4.142-3.357-7.5-7.5-7.5s-7.5 3.358-7.5 7.5v48.136c0 15.098-3.568 30.214-10.319 43.716-7.788 15.575-11.904 33.011-11.904 50.424v94.76c0 20.363 16.186 37.008 36.366 37.768v36.984c0 7.004-5.698 12.703-12.703 12.703h-12.122c-20.846 0-37.805 16.959-37.805 37.805v20.204c0 4.142 3.357 7.5 7.5 7.5h473.98c7.092 0 13.268-4.034 16.118-10.529 2.851-6.494 1.638-13.771-3.164-18.99zm-192.997-221.053 11.994-22.657 24.612 9.062-9.672 23.511zm-96.589-88.035 25.079-4.067c1.086 8.038 3.596 15.726 7.314 22.744l-22.882 11.014c-4.759-9.205-8.017-19.226-9.511-29.691zm-.947-40.348h25.406v21.185l-25.406 4.12zm25.406-37.232v22.232h-25.406v-22.232zm-6.974 120.079 23.443-11.284c4.357 5.088 9.468 9.549 15.199 13.196l-16.95 19.214c-8.372-5.853-15.685-13.008-21.692-21.126zm34.903 28.825 17.737-20.106 24.254 8.93-11.995 22.658-22.124-8.145c-2.694-.993-5.313-2.117-7.872-3.337zm127.58 26.548c-5.353 9.921-17.366 14.464-27.947 10.57l-14.412-5.306 9.672-23.511 35.484 13.065zm25.311 162.524c0 7.004-5.698 12.703-12.703 12.703h-16.164c-7.005 0-12.703-5.699-12.703-12.703v-36.947h41.569v36.947z"/></g></g></svg>