<svg id="Capa_1" enable-background="new 0 0 512 512" height="512" viewBox="0 0 512 512" width="512" xmlns="http://www.w3.org/2000/svg"><g><path d="m252.344 511.907c-37.446-1.758-75.175-14.088-109.332-35.546-33.988-21.401-64.46-51.873-87.421-90.056-2.154-3.572-1.021-8.164 2.551-10.29 3.544-2.154 8.136-.992 10.262 2.551 21.771 36.142 50.514 64.969 82.602 85.124 24.435 15.392 50.797 25.739 77.442 30.501-13.748-10.942-26.504-23.471-38.041-37.361l-12.586-3.345c-3.996-1.077-6.378-5.188-5.301-9.184.624-2.353 2.325-4.167 4.423-5.017-7.739-10.97-14.825-22.621-21.118-34.866-1.475-2.891-2.92-5.783-4.337-8.73l-27.553-7.398c-3.997-1.077-6.378-5.188-5.301-9.185s5.158-6.35 9.155-5.301l16.016 4.309c-4.96-12.415-9.212-25.313-12.643-38.636l-41.896-11.226c-3.997-1.049-6.35-5.159-5.301-9.156 1.077-3.997 5.188-6.378 9.184-5.301l34.187 9.156c-2.353-11.622-4.139-23.527-5.244-35.631l-48.246-13.946c-3.997-1.077-6.378-5.159-5.301-9.156 1.049-3.997 5.159-6.378 9.156-5.301l33.108 8.844-35.206-60.944c-2.041-3.572-.822-8.135 2.778-10.205 3.571-2.041 8.135-.822 10.176 2.75l32.088 55.587c.085-28.517 3.742-56.097 10.432-82.091-12.529-6.095-25.427-10.914-38.466-14.4-13.295-3.572-26.702-5.754-40.025-6.463-14.06 27.694-21.486 59.527-21.77 92.777-.312 34.299 6.944 70.1 22.28 104.484 1.7 3.77 0 8.192-3.771 9.893-3.77 1.672-8.192-.028-9.893-3.798-16.243-36.397-23.896-74.324-23.585-110.693.341-37.388 9.128-73.133 25.711-103.889 1.474-2.721 4.365-4.167 7.257-3.912 15.959.51 31.946 2.919 47.65 7.115 13.124 3.515 26.106 8.305 38.749 14.258 5.471-17.744 12.416-34.667 20.608-50.598 23.159-44.957 56.551-81.921 96.406-106.526 2.522-1.559 5.641-1.417 7.965.085 12.047 7.455 23.442 15.959 34.101 25.427 10.772 9.581 20.863 20.183 30.19 31.748 2.579 3.203 2.069 7.937-1.162 10.516-3.203 2.58-7.938 2.069-10.517-1.134-8.73-10.856-18.256-20.863-28.488-29.934-8.958-7.965-18.369-15.166-28.177-21.487-35.801 23.103-65.849 57.089-87.023 98.164-21.232 41.244-33.477 89.688-33.477 141.533 0 49.011 10.998 97.908 33.477 141.533 18.851 36.595 45.779 69.335 79.54 93.118v-44.814l-42.009-42.009c-2.948-2.92-2.948-7.682 0-10.602 2.919-2.919 7.682-2.919 10.602 0l31.407 31.408v-61.625l-58.847-58.818c-2.92-2.948-2.92-7.682 0-10.602 2.948-2.948 7.682-2.948 10.63 0l48.217 48.217v-61.625l-58.847-58.819c-2.92-2.948-2.92-7.682 0-10.63 2.948-2.919 7.682-2.919 10.63 0l48.217 48.217v-61.597l-42.009-42.009c-2.948-2.948-2.948-7.682 0-10.629 2.919-2.92 7.682-2.92 10.602 0l31.407 31.407v-87.56c0-4.139 3.345-7.512 7.483-7.512 4.139 0 7.512 3.373 7.512 7.512v87.562l31.408-31.407c2.92-2.92 7.653-2.92 10.602 0 2.92 2.947 2.92 7.681 0 10.629l-42.01 42.009v61.597l48.218-48.217c2.92-2.919 7.682-2.919 10.602 0 2.92 2.948 2.92 7.682 0 10.63l-58.819 58.819v61.625l48.218-48.217c2.92-2.948 7.682-2.948 10.602 0 2.92 2.919 2.92 7.653 0 10.602l-58.819 58.818v61.625l31.408-31.408c2.92-2.919 7.653-2.919 10.602 0 2.92 2.92 2.92 7.682 0 10.602l-42.01 42.009v44.815c33.761-23.783 60.69-56.522 79.512-93.118 22.479-43.625 33.478-92.522 33.478-141.533 0-56.692-14.684-113.045-44.702-161.319-2.183-3.515-1.105-8.135 2.409-10.318 3.515-2.183 8.136-1.105 10.318 2.409 13.492 21.685 24.463 45.723 32.399 71.433 12.671-5.953 25.626-10.743 38.75-14.258 15.874-4.252 32.003-6.661 48.132-7.115 2.807-.085 5.443 1.417 6.804 3.912 6.718 12.501 12.189 25.852 16.299 39.798 4.139 13.946 6.917 28.516 8.334 43.54.368 4.11-2.664 7.738-6.774 8.107s-7.738-2.665-8.107-6.775c-1.304-13.946-3.912-27.552-7.795-40.648-3.373-11.424-7.711-22.394-13.012-32.797-13.294.709-26.702 2.891-39.996 6.463-13.068 3.486-25.966 8.305-38.495 14.4 6.719 26.05 10.347 53.603 10.46 82.091l32.061-55.587c2.068-3.572 6.633-4.791 10.204-2.75 3.571 2.069 4.819 6.633 2.75 10.205l-35.179 60.944 33.081-8.872c3.997-1.049 8.107 1.333 9.184 5.33s-1.304 8.079-5.301 9.156l-47.565 12.756c-.85 1.446-4.875 31.549-5.924 36.821l34.185-9.156c3.997-1.077 8.107 1.304 9.156 5.301 1.077 3.997-1.305 8.107-5.301 9.156l-41.868 11.226c-3.43 13.294-7.682 26.22-12.671 38.636l16.016-4.309c3.997-1.049 8.108 1.304 9.185 5.301 1.049 3.997-1.304 8.107-5.301 9.185l-27.581 7.398c-1.389 2.948-2.835 5.839-4.309 8.73-6.321 12.246-13.38 23.896-21.118 34.866 2.098.85 3.77 2.664 4.422 5.017 1.049 3.997-1.304 8.107-5.301 9.184l-12.586 3.345c-11.565 13.89-24.293 26.419-38.041 37.361 27.354-4.875 54.454-15.704 79.483-31.776 51.506-33.165 90-86.116 107.575-144.708 5.925-19.814 9.326-39.77 10.29-59.329.198-4.138 3.685-7.313 7.823-7.115 4.139.17 7.314 3.685 7.115 7.824-1.02 20.806-4.593 41.98-10.886 62.9-18.567 61.935-59.385 118.004-113.839 153.011-34.413 22.138-72.651 34.922-110.608 36.878-3.061.142-5.414.171-8.475.029z"/></g></svg>