<svg width="329" height="329" viewBox="0 0 329 329" fill="none" xmlns="http://www.w3.org/2000/svg">
<path d="M260.501 272.907C263.6 272.907 266.648 271.683 269.021 269.311C273.049 265.283 273.766 259.308 270.805 254.442L235.867 197.008L244.671 194.864C248.695 193.884 251.164 189.827 250.184 185.802C249.204 181.778 245.143 179.308 241.122 180.29L199.133 190.516C194.714 191.593 191.301 195.006 190.226 199.424L164.59 304.681L138.954 199.425C137.879 195.006 134.466 191.592 130.046 190.516L24.7889 164.881L130.047 139.246C134.466 138.169 137.879 134.756 138.954 130.338L164.589 25.0802L190.225 130.337C191.3 134.756 194.713 138.17 199.133 139.246L304.391 164.881L267.461 173.875C263.437 174.855 260.968 178.913 261.948 182.937C262.927 186.96 266.983 189.427 271.01 188.449L319.43 176.657C324.963 175.309 328.682 170.576 328.681 164.88C328.681 159.185 324.963 154.453 319.429 153.105L235.866 132.753L270.804 75.319C273.765 70.453 273.048 64.4781 269.021 60.4501C264.992 56.4211 259.016 55.7051 254.152 58.6651L196.717 93.603L176.365 10.0413C175.018 4.5073 170.286 0.789315 164.591 0.788315C158.896 0.788315 154.162 4.50631 152.814 10.0403L132.463 93.6019L75.0297 58.6651C70.1647 55.7051 64.1888 56.4201 60.1608 60.4491C56.1328 64.4771 55.4158 70.452 58.3768 75.318L85.8627 120.505C87.2737 122.826 89.7457 124.109 92.2766 124.109C93.6046 124.109 94.9496 123.756 96.1676 123.016C99.7066 120.863 100.831 116.249 98.6776 112.711L77.3377 77.628L128.739 108.896L124.796 125.087L9.75096 153.106C4.21798 154.454 0.499 159.187 0.5 164.883C0.5 170.578 4.21798 175.31 9.75196 176.658L93.3146 197.01L58.3768 254.443C55.4158 259.309 56.1328 265.284 60.1598 269.312C62.5328 271.685 65.5817 272.909 68.6807 272.909C70.8427 272.909 73.0297 272.314 75.0287 271.097L132.463 236.159L152.815 319.721C154.162 325.255 158.894 328.973 164.589 328.974H164.59C170.285 328.974 175.018 325.256 176.366 319.722L196.717 236.159L254.151 271.096C256.151 272.312 258.337 272.907 260.501 272.907ZM251.843 77.626L220.575 129.029L204.384 125.086L200.441 108.895L251.843 77.626ZM77.3357 252.134L108.604 200.732L124.794 204.675L128.737 220.865L77.3357 252.134ZM200.441 220.866L204.384 204.676L220.575 200.733L251.843 252.134L200.441 220.866Z" fill="black"/>
</svg>
